Coordinates
version=1
nRows=8
nColumns=34
inDegrees=yes

Units are S.I. units (second, meters, Newtons, ...)
If the header above contains a line with 'inDegrees', this indicates whether rotational values are in degrees (yes) or radians (no).

endheader
time	pelvis_tilt	pelvis_list	pelvis_rotation	pelvis_tx	pelvis_ty	pelvis_tz	hip_flexion_r	hip_adduction_r	hip_rotation_r	knee_angle_r	ankle_angle_r	subtalar_angle_r	mtp_angle_r	hip_flexion_l	hip_adduction_l	hip_rotation_l	knee_angle_l	ankle_angle_l	subtalar_angle_l	mtp_angle_l	lumbar_extension	lumbar_bending	lumbar_rotation	arm_flex_r	arm_add_r	arm_rot_r	elbow_flex_r	pro_sup_r	arm_flex_l	arm_add_l	arm_rot_l	elbow_flex_l	pro_sup_l
      1.96666670	      4.86444972	      0.70857793	    -24.13773463	      0.31517618	      1.00159898	      0.16322297	     -3.52746788	     -5.24608106	    -18.80361158	      0.84269004	     10.15588820	     -1.20650143	      0.00000000	      1.98240556	     -4.48033356	    -16.78146848	      4.62612516	     11.82664909	      2.30642895	      0.00000000	     -9.93369814	     -1.12115506	      3.01760465	     14.92019378	    -14.63679040	     26.45423829	     23.03535964	    119.74817918	     11.87193945	    -14.22147077	     23.66339241	     22.85644026	    118.12538320
      1.98333330	      4.97072489	      0.55241251	    -24.35468044	      0.31506437	      1.00168532	      0.16345016	     -3.67151927	     -5.14595154	    -18.41368567	      0.80842632	     10.00636048	     -1.38147289	      0.00000000	      1.75510168	     -4.55670868	    -16.41593087	      4.57879753	     11.68991498	      1.50282319	      0.00000000	     -9.94400896	     -0.96206044	      3.12607047	     16.04067489	    -14.85972039	     30.82985815	     22.69211940	    119.74817918	     12.60353230	    -14.44308690	     27.09542022	     22.77651202	    119.56753839
      2.00000000	      5.00330551	      0.54470982	    -24.37709573	      0.31555015	      1.00174983	      0.16354511	     -3.73025159	     -5.16911801	    -18.42926321	      0.80799959	     10.01985784	     -1.39834106	      0.00000000	      1.70408196	     -4.54295490	    -16.42148405	      4.60446091	     11.69188972	      1.48822612	      0.00000000	     -9.73365003	     -0.91821899	      3.11907570	     16.34516443	    -14.55471863	     30.85296313	     22.87996426	    119.74817918	     12.86514279	    -14.15444833	     27.12303287	     22.92176559	    119.57802005
      2.01666670	      5.05790318	      0.51716904	    -24.46060549	      0.31443532	      1.00178333	      0.16296669	     -3.67676818	     -5.18411396	    -18.40358058	      0.83223020	     10.02202487	     -1.41601417	      0.00000000	      1.75606898	     -4.54350080	    -16.42322978	      4.69981225	     11.70246927	      1.39815349	      0.00000000	     -9.83525530	     -0.84019109	      3.02661731	     17.09054935	    -14.33952290	     30.89101680	     23.18164617	    119.74817918	     13.40052305	    -13.94415988	     27.18941185	     23.04215616	    119.61531446
      2.03333330	      5.25618445	      0.35848856	    -24.47542174	      0.31352931	      1.00215354	      0.16253918	     -3.72137186	     -5.18694734	    -18.30823106	      1.17642768	      9.97319310	     -1.47954162	      0.00000000	      1.75977586	     -4.67032044	    -16.40036949	      5.12922887	     11.68957493	      1.13265660	      0.00000000	    -10.10683851	     -0.68585792	      2.94506623	     17.75132130	    -14.05774763	     31.14934210	     23.41856043	    119.74817918	     13.93938624	    -13.65729859	     27.45187184	     22.98930117	    119.72775975
      2.05000000	      5.28051484	      0.35563518	    -24.51443453	      0.31355230	      1.00216674	      0.16259319	     -3.76085798	     -5.18727630	    -18.33414925	      1.14325314	      9.99958566	     -1.50765581	      0.00000000	      1.72462015	     -4.65793282	    -16.39376002	      5.13487762	     11.70970265	      1.11353365	      0.00000000	     -9.93580094	     -0.64563973	      2.95591602	     18.02141799	    -13.73482378	     31.20113888	     23.58897044	    119.74817918	     14.17488305	    -13.34764550	     27.51024853	     23.11324377	    119.74465449
      2.06666670	      5.31258281	      0.34899926	    -24.55314651	      0.31318980	      1.00216873	      0.16247714	     -3.76570169	     -5.19073800	    -18.33726705	      1.12950343	     10.01278942	     -1.52191427	      0.00000000	      1.71450885	     -4.65157747	    -16.38822352	      5.15308421	     11.73652362	      1.08694230	      0.00000000	     -9.85238263	     -0.61030582	      2.94023220	     18.34535371	    -13.42876281	     31.25765318	     23.76893110	    119.74817918	     14.45151328	    -13.06757563	     27.57972764	     23.22798927	    119.74817918
      2.08333330	      5.38557429	      0.15517549	    -24.52077160	      0.31146808	      1.00222906	      0.16164697	     -3.68212802	     -5.06270615	    -18.01556002	      1.38071321	      9.80619919	     -2.03853279	      0.00000000	      1.90277840	     -4.86232311	    -15.85617657	      5.59173382	     11.74544397	      0.32314303	      0.00000000	    -10.16302697	     -0.37147985	      2.83916436	     19.54317638	    -13.53235674	     34.44061934	     23.35446085	    119.74817918	     15.63932939	    -13.06100112	     31.17832332	     22.31675173	    119.74817918
